<svg id="game" enable-background="new 0 0 512 512" viewBox="0 0 512 512" width="60" xmlns="http://www.w3.org/2000/svg"><g><circle cx="382" cy="295" r="10"/><circle cx="362" cy="275" r="10"/><circle cx="362" cy="315" r="10"/><circle cx="342" cy="295" r="10"/><circle cx="276" cy="355" r="10"/><circle cx="236" cy="355" r="10"/><path d="m362 365c38.598 0 70-31.402 70-70s-31.402-70-70-70-70 31.402-70 70 31.402 70 70 70zm0-120c27.57 0 50 22.43 50 50s-22.43 50-50 50-50-22.43-50-50 22.43-50 50-50z"/><path d="m150 225c-38.598 0-70 31.402-70 70s31.402 70 70 70 70-31.402 70-70-31.402-70-70-70zm0 120c-27.57 0-50-22.43-50-50s22.43-50 50-50 50 22.43 50 50-22.43 50-50 50z"/><path d="m170 285h-10v-10c0-5.523-4.477-10-10-10s-10 4.477-10 10v10h-10c-5.523 0-10 4.477-10 10s4.477 10 10 10h10v10c0 5.523 4.477 10 10 10s10-4.477 10-10v-10h10c5.523 0 10-4.477 10-10s-4.477-10-10-10z"/><circle cx="256" cy="395" r="10"/><path d="m437.499 201.751c-2.445-4.169-4.755-8.106-6.816-11.713-1.353-2.366-3.612-4.079-6.257-4.74-7.032-1.751-61.928-15.476-76.75-19.053-4.782-1.154-8.913-2.149-12.885 1.821-10.988 10.92-25.574 16.934-41.071 16.934h-27.72v-45c0-11.028 8.972-20 20-20h60c22.056 0 40-17.944 40-40s-17.944-40-40-40h-160c-11.028 0-20-8.972-20-20v-10c0-5.523-4.477-10-10-10s-10 4.477-10 10v10c0 22.056 17.944 40 40 40h160c11.028 0 20 8.972 20 20s-8.972 20-20 20h-60c-22.056 0-40 17.944-40 40v45h-27.72c-15.497 0-30.083-6.014-41.049-16.911l-.16-.16c-3.052-3.051-7.594-3.723-11.299-1.994-6.671 1.52-24.837 6.023-78.198 19.363-2.645.661-4.904 2.373-6.257 4.74-2.062 3.607-4.372 7.546-6.817 11.715-45.664 77.848-74.5 149.594-74.5 248.827v14.7c0 22.524 21.675 46.72 50 46.72 12.997 0 25.311-4.963 34.675-13.975.091-.088.181-.178.269-.269l89.309-92.756h36.747c5.523 0 10-4.477 10-10s-4.477-10-10-10h-41c-2.718 0-5.318 1.106-7.204 3.064l-92.118 95.672c-5.602 5.331-12.938 8.264-20.678 8.264-15.46 0-28.565-11.898-30-27.155v-14.265c0-116.386 44.916-192.958 71.751-238.708 1.668-2.845 3.275-5.583 4.793-8.201 25.013-6.25 58.361-14.553 70.73-17.564 14.188 12.223 32.093 18.893 51.006 18.893h75.44c18.906 0 36.801-6.663 51.002-18.893 12.37 3.011 45.718 11.314 70.732 17.564 1.518 2.617 3.124 5.355 4.792 8.199 26.838 45.752 71.754 122.325 71.754 238.74v11.39c0 16.542-13.458 30-30 30-7.74 0-15.076-2.933-20.679-8.264l-92.118-95.672c-1.885-1.958-4.485-3.064-7.203-3.064h-41c-5.523 0-10 4.477-10 10s4.477 10 10 10h36.747s89.487 92.937 89.579 93.025c9.363 9.012 21.677 13.975 34.674 13.975 27.57 0 50-22.43 50-50v-11.39c0-52.81-9.131-104.26-27.14-152.92-15.24-41.177-33.805-72.828-47.361-95.939z"/></g></svg>